<svg width="8" height="13" viewBox="0 0 8 13" fill="none" xmlns="http://www.w3.org/2000/svg">
<path d="M2.97727 8.72727V8.65909C2.98485 7.93561 3.06061 7.35985 3.20455 6.93182C3.34848 6.50379 3.55303 6.1572 3.81818 5.89205C4.08333 5.62689 4.40152 5.38258 4.77273 5.15909C4.99621 5.02273 5.19697 4.86174 5.375 4.67614C5.55303 4.48674 5.69318 4.26894 5.79545 4.02273C5.90152 3.77652 5.95455 3.50379 5.95455 3.20455C5.95455 2.83333 5.86742 2.51136 5.69318 2.23864C5.51894 1.96591 5.28599 1.75568 4.99432 1.60795C4.70265 1.46023 4.37879 1.38636 4.02273 1.38636C3.71212 1.38636 3.41288 1.45076 3.125 1.57955C2.83712 1.70833 2.59659 1.91098 2.40341 2.1875C2.21023 2.46401 2.09848 2.82576 2.06818 3.27273H0.636364C0.666667 2.62879 0.833333 2.07765 1.13636 1.61932C1.44318 1.16098 1.84659 0.810606 2.34659 0.568181C2.85038 0.325757 3.40909 0.204545 4.02273 0.204545C4.68939 0.204545 5.26894 0.337121 5.76136 0.602272C6.25758 0.867424 6.64015 1.23106 6.90909 1.69318C7.18182 2.1553 7.31818 2.68182 7.31818 3.27273C7.31818 3.68939 7.25379 4.06629 7.125 4.40341C7 4.74053 6.81818 5.04167 6.57955 5.30682C6.3447 5.57197 6.06061 5.80682 5.72727 6.01136C5.39394 6.2197 5.12689 6.43939 4.92614 6.67045C4.72538 6.89773 4.57955 7.16856 4.48864 7.48295C4.39773 7.79735 4.34848 8.18939 4.34091 8.65909V8.72727H2.97727ZM3.70455 12.0909C3.42424 12.0909 3.18371 11.9905 2.98295 11.7898C2.7822 11.589 2.68182 11.3485 2.68182 11.0682C2.68182 10.7879 2.7822 10.5473 2.98295 10.3466C3.18371 10.1458 3.42424 10.0455 3.70455 10.0455C3.98485 10.0455 4.22538 10.1458 4.42614 10.3466C4.62689 10.5473 4.72727 10.7879 4.72727 11.0682C4.72727 11.2538 4.67992 11.4242 4.58523 11.5795C4.49432 11.7348 4.37121 11.8598 4.21591 11.9545C4.06439 12.0455 3.89394 12.0909 3.70455 12.0909Z" fill="#01497C"/>
</svg>
