<svg width="17" height="16" viewBox="0 0 17 16" fill="none" xmlns="http://www.w3.org/2000/svg">
<path d="M14.9946 8.784C15.0296 8.528 15.0558 8.272 15.0558 8C15.0558 7.728 15.0296 7.472 14.9946 7.216L16.8384 5.896C17.0044 5.776 17.0481 5.56 16.9433 5.384L15.1956 2.616C15.1169 2.488 14.9684 2.416 14.8111 2.416C14.7587 2.416 14.7062 2.424 14.6625 2.44L12.4867 3.24C12.0323 2.92 11.5429 2.656 11.0099 2.456L10.6778 0.336C10.6516 0.144 10.4681 0 10.2496 0H6.75424C6.53578 0 6.35227 0.144 6.32606 0.336L5.99399 2.456C5.46095 2.656 4.9716 2.928 4.5172 3.24L2.34132 2.44C2.28889 2.424 2.23646 2.416 2.18403 2.416C2.03548 2.416 1.88692 2.488 1.80828 2.616L0.0605851 5.384C-0.0530148 5.56 -0.000583992 5.776 0.165447 5.896L2.00926 7.216C1.97431 7.472 1.94809 7.736 1.94809 8C1.94809 8.264 1.97431 8.528 2.00926 8.784L0.165447 10.104C-0.000583992 10.224 -0.0442764 10.44 0.0605851 10.616L1.80828 13.384C1.88692 13.512 2.03548 13.584 2.19277 13.584C2.2452 13.584 2.29763 13.576 2.34132 13.56L4.5172 12.76C4.9716 13.08 5.46095 13.344 5.99399 13.544L6.32606 15.664C6.35227 15.856 6.53578 16 6.75424 16H10.2496C10.4681 16 10.6516 15.856 10.6778 15.664L11.0099 13.544C11.5429 13.344 12.0323 13.072 12.4867 12.76L14.6625 13.56C14.715 13.576 14.7674 13.584 14.8198 13.584C14.9684 13.584 15.1169 13.512 15.1956 13.384L16.9433 10.616C17.0481 10.44 17.0044 10.224 16.8384 10.104L14.9946 8.784ZM13.2644 7.416C13.2993 7.664 13.3081 7.832 13.3081 8C13.3081 8.168 13.2906 8.344 13.2644 8.584L13.142 9.488L13.9198 10.048L14.8635 10.72L14.2518 11.688L13.142 11.28L12.2332 10.944L11.4468 11.488C11.071 11.744 10.7128 11.936 10.3545 12.072L9.42821 12.416L9.28839 13.32L9.11362 14.4H7.89024L7.72421 13.32L7.58439 12.416L6.65812 12.072C6.28236 11.928 5.93282 11.744 5.58329 11.504L4.78809 10.944L3.86181 11.288L2.75203 11.696L2.14034 10.728L3.08409 10.056L3.86181 9.496L3.73947 8.592C3.71326 8.344 3.69578 8.16 3.69578 8C3.69578 7.84 3.71326 7.656 3.73947 7.416L3.86181 6.512L3.08409 5.952L2.14034 5.28L2.75203 4.312L3.86181 4.72L4.77061 5.056L5.55707 4.512C5.93283 4.256 6.2911 4.064 6.64938 3.928L7.57565 3.584L7.71547 2.68L7.89024 1.6H9.10488L9.27091 2.68L9.41073 3.584L10.337 3.928C10.7128 4.072 11.0623 4.256 11.4118 4.496L12.207 5.056L13.1333 4.712L14.2431 4.304L14.8548 5.272L13.9198 5.952L13.142 6.512L13.2644 7.416ZM8.50193 4.8C6.57073 4.8 5.00655 6.232 5.00655 8C5.00655 9.768 6.57073 11.2 8.50193 11.2C10.4331 11.2 11.9973 9.768 11.9973 8C11.9973 6.232 10.4331 4.8 8.50193 4.8ZM8.50193 9.6C7.5407 9.6 6.75424 8.88 6.75424 8C6.75424 7.12 7.5407 6.4 8.50193 6.4C9.46316 6.4 10.2496 7.12 10.2496 8C10.2496 8.88 9.46316 9.6 8.50193 9.6Z" fill="#01497C"/>
</svg>
